<svg xmlns="http://www.w3.org/2000/svg" width="40" height="30">
    <path fill="#EA597A" fill-rule="evenodd" d="M38.75 16.249h-2.677c-.559 2.157-2.506 3.761-4.837 3.761-2.332 0-4.279-1.604-4.838-3.761H1.251a1.25 1.25 0 1 1 0-2.498h25.147c.559-2.156 2.506-3.761 4.838-3.761 2.331 0 4.278 1.605 4.837 3.761h2.677a1.25 1.25 0 0 1 0 2.498zm-7.514-3.761A2.516 2.516 0 0 0 28.721 15a2.516 2.516 0 0 0 2.515 2.513A2.516 2.516 0 0 0 33.75 15a2.516 2.516 0 0 0-2.514-2.512zm7.514-6.23H22.06c-.559 2.157-2.507 3.761-4.838 3.761s-4.278-1.604-4.838-3.761H1.251a1.25 1.25 0 1 1 0-2.498h11.133c.56-2.157 2.507-3.761 4.838-3.761s4.279 1.604 4.838 3.761h16.69a1.25 1.25 0 1 1 0 2.498zM17.222 2.497a2.515 2.515 0 0 0-2.514 2.512 2.515 2.515 0 0 0 5.029 0 2.516 2.516 0 0 0-2.515-2.512zM1.251 23.743h3.606c.559-2.157 2.506-3.762 4.838-3.762 2.329 0 4.277 1.605 4.836 3.762H38.75a1.25 1.25 0 1 1 0 2.497H14.531c-.559 2.157-2.507 3.762-4.836 3.762-2.332 0-4.279-1.605-4.838-3.762H1.251a1.25 1.25 0 1 1 0-2.497zm8.444 3.761a2.516 2.516 0 0 0 2.513-2.513 2.516 2.516 0 0 0-2.513-2.512 2.516 2.516 0 0 0-2.515 2.512 2.516 2.516 0 0 0 2.515 2.513z"/>
</svg>
