<svg xmlns="http://www.w3.org/2000/svg" width="19" height="12">
    <path fill="#696969" fill-rule="evenodd" d="M17.643 6c-1.075-1.639-2.421-2.865-4.04-3.677.431.722.647 1.503.647 2.344 0 1.284-.465 2.383-1.394 3.296-.93.914-2.048 1.37-3.356 1.37-1.308 0-2.426-.456-3.356-1.37C5.215 7.05 4.75 5.951 4.75 4.667c0-.841.216-1.622.647-2.344C3.778 3.135 2.432 4.361 1.357 6a10.856 10.856 0 0 0 3.536 3.401A8.844 8.844 0 0 0 9.5 10.667c1.654 0 3.19-.422 4.607-1.266A10.856 10.856 0 0 0 17.643 6zm-7.634-4a.477.477 0 0 0-.149-.354.496.496 0 0 0-.36-.146 3.13 3.13 0 0 0-2.274.932c-.633.622-.949 1.367-.949 2.235 0 .139.049.257.148.354a.497.497 0 0 0 .361.146.496.496 0 0 0 .36-.146.477.477 0 0 0 .149-.354c0-.598.215-1.108.646-1.532A2.148 2.148 0 0 1 9.5 2.5a.496.496 0 0 0 .36-.146.477.477 0 0 0 .149-.354zM19 6c0 .236-.071.476-.212.719-.99 1.597-2.32 2.876-3.992 3.838C13.124 11.519 11.359 12 9.5 12c-1.859 0-3.624-.483-5.296-1.448C2.532 9.587 1.202 8.309.212 6.719A1.428 1.428 0 0 1 0 6c0-.236.071-.476.212-.719.99-1.59 2.32-2.868 3.992-3.833C5.876.483 7.641 0 9.5 0c1.859 0 3.624.483 5.296 1.448 1.672.965 3.002 2.243 3.992 3.833.141.243.212.483.212.719z"/>
</svg>
