
<svg xmlns="http://www.w3.org/2000/svg" width="40" height="40">
    <path fill="#ED7692" fill-rule="evenodd" d="M20 40C8.955 40 0 31.046 0 20 0 8.955 8.955 0 20 0c11.047 0 20 8.955 20 20 0 11.047-8.953 20-20 20zm0-38C10.075 2 2 10.074 2 20s8.075 18 18 18 18-8.075 18-18S29.925 2 20 2zm7.977 30.522c-2.642.293-5.316.296-7.979.293-2.662.003-5.337 0-7.979-.293-1.116-.126-2.042-.962-2.303-2.095-.371-1.614-.371-3.375-.371-5.038 0-1.66.005-3.422.376-5.036.261-1.133 1.187-1.969 2.303-2.093 2.643-.296 5.316-.297 7.979-.296 2.662 0 5.336 0 7.979.296 1.115.125 2.042.96 2.303 2.093.371 1.614.37 3.376.37 5.036 0 1.663-.003 3.424-.373 5.038-.261 1.133-1.188 1.969-2.305 2.095zM15.425 20.461h-4.49v1.344h1.515v8.193h1.433v-8.193h1.542v-1.344zm3.89 2.432h-1.289v5.432c-.286.403-.556.602-.813.602-.173 0-.271-.102-.303-.301-.012-.042-.012-.199-.012-.501v-5.231h-1.287v5.619c0 .502.042.842.113 1.057.129.359.415.529.831.529.473 0 .958-.287 1.471-.873v.773h1.289v-7.106zm4.891 2.144c0-.674-.044-1.144-.129-1.43-.172-.531-.517-.802-1.029-.802-.474 0-.916.259-1.332.771v-3.115h-1.287v9.537h1.287v-.688c.431.531.873.787 1.332.787.513 0 .857-.271 1.029-.799.085-.303.129-.775.129-1.434v-2.827zm4.862.172h-.002c0-.76-.129-1.315-.398-1.674-.36-.487-.874-.729-1.52-.729-.657 0-1.169.242-1.542.729-.273.358-.398.914-.398 1.674v2.488c0 .756.142 1.316.414 1.672.373.484.886.729 1.559.729.673 0 1.201-.256 1.557-.771.157-.228.258-.486.302-.771.012-.129.027-.414.027-.829v-.188h-1.313c0 .517-.017.803-.028.873-.073.344-.259.516-.576.516-.441 0-.657-.327-.657-.986v-1.259h2.575v-1.474zm-2.577-.258c0-.657.216-.986.646-.986.427 0 .642.329.642.986v.658h-1.288v-.658zm-4.132 3.975c-.213 0-.428-.101-.644-.316v-4.332c.216-.211.431-.313.644-.313.371 0 .56.329.56.971v3.032c0 .642-.189.958-.56.958zm3.087-12.102v-.784c-.518.594-1.013.882-1.486.882-.418 0-.708-.17-.839-.534-.071-.217-.115-.56-.115-1.067V9.642h1.298v5.289c0 .304 0 .463.017.505.028.202.13.305.304.305.261 0 .533-.202.822-.609v-5.49h1.302v7.183h-1.303v-.001zm-5.434.099c-.647 0-1.154-.246-1.514-.735-.277-.359-.408-.926-.408-1.689v-2.514c0-.769.131-1.329.408-1.692.359-.491.866-.736 1.514-.736.653 0 1.16.245 1.519.736.272.363.404.924.404 1.692v2.514c.001.763-.131 1.329-.404 1.689-.358.489-.865.735-1.519.735zm.622-5.201c0-.664-.2-.996-.621-.996-.419 0-.62.332-.62.996v3.021c0 .665.201.997.62.997.421 0 .621-.332.621-.997v-3.021zm-4.291 5.102H14.9V12.92c-.132-.691-.421-1.705-.883-3.048-.304-.895-.62-1.792-.925-2.686h1.519l1.024 3.785.983-3.785h1.459l-1.734 5.734v3.904z"/>
</svg>
