
<svg xmlns="http://www.w3.org/2000/svg" width="20" height="20">
    <path fill="#FFF" fill-rule="evenodd" d="M18.168 18.21c-1.078 1.139-2.654 1.789-4.313 1.789H6.14c-1.659 0-3.235-.65-4.314-1.789C.748 17.153.001 15.689.001 13.981V6.012c0-1.626.747-3.171 1.825-4.228C2.905.727 4.481-.005 6.14-.005h7.715c1.659 0 3.235.732 4.313 1.789 1.079 1.057 1.825 2.602 1.825 4.228v7.969c0 1.708-.746 3.172-1.825 4.229zm.083-12.198c0-1.138-.497-2.277-1.327-3.009-.747-.813-1.908-1.301-3.069-1.301H6.14c-1.244 0-2.323.488-3.152 1.301-.747.732-1.245 1.871-1.245 3.009v7.969c0 1.22.498 2.277 1.245 3.091.829.732 1.908 1.219 3.152 1.219h7.715c1.161 0 2.322-.487 3.069-1.219.83-.814 1.327-1.871 1.327-3.091V6.012zm-2.571-.325a1.15 1.15 0 0 1-1.162-1.138c0-.629.52-1.139 1.162-1.139.641 0 1.161.51 1.161 1.139a1.15 1.15 0 0 1-1.161 1.138zm-1.991 7.888c-.913.894-2.24 1.464-3.733 1.464-1.41 0-2.738-.57-3.65-1.464-.996-.976-1.576-2.196-1.576-3.66 0-1.382.58-2.683 1.576-3.578.912-.975 2.24-1.544 3.65-1.544 1.493 0 2.82.569 3.733 1.544a5.06 5.06 0 0 1 1.493 3.578c0 1.464-.581 2.684-1.493 3.66zm-1.245-6.099c-.58-.57-1.493-.976-2.488-.976-.913 0-1.825.406-2.489.976-.581.651-.995 1.545-.995 2.439 0 .976.414 1.871.995 2.44.664.651 1.576 1.057 2.489 1.057.995 0 1.908-.406 2.488-1.057.664-.569 1.079-1.464 1.079-2.44 0-.894-.415-1.788-1.079-2.439z"/>
</svg>