<svg xmlns="http://www.w3.org/2000/svg" width="20" height="19">
    <path fill="#FFF" fill-rule="evenodd" d="M19.999 8.136C19.999 3.642 15.522 0 10 0 4.477 0 0 3.642 0 8.136c0 4.193 3.9 7.646 8.91 8.087.139.024.627.165.597.634-.055.863-.689 1.805-.466 2.024.205.202.697.328 3.014-1.278 1.24-.859 3.22-2.087 4.935-3.651 1.186-.944 2.085-2.126 2.579-3.451a5.775 5.775 0 0 0 .43-2.365zM6.115 11.173c-.08.068-.196.103-.349.103H3.512c-.203 0-.349-.044-.439-.132-.089-.087-.133-.229-.133-.425v-3.45c0-.183.042-.321.127-.412a.435.435 0 0 1 .335-.138c.141 0 .254.045.341.136.087.091.131.229.131.414v3.261h1.892c.151 0 .267.036.348.107a.344.344 0 0 1 .121.269c0 .11-.04.199-.12.267zm1.704-.374c0 .185-.043.324-.13.416a.451.451 0 0 1-.341.137.433.433 0 0 1-.332-.139c-.087-.093-.131-.23-.131-.414v-3.53c0-.183.043-.321.129-.412a.437.437 0 0 1 .334-.138.45.45 0 0 1 .341.136c.087.091.13.229.13.414v3.53zm4.914-.037c0 .394-.168.59-.503.59a.583.583 0 0 1-.415-.147 1.086 1.086 0 0 1-.163-.179 9.462 9.462 0 0 1-.152-.209l-1.75-2.61v2.625c0 .172-.041.301-.123.389a.413.413 0 0 1-.314.131.405.405 0 0 1-.318-.133c-.08-.088-.119-.217-.119-.387V7.376c0-.146.016-.262.05-.345a.553.553 0 0 1 .497-.312c.084 0 .155.013.215.039.06.027.112.063.157.108.045.044.091.102.139.173l.146.224 1.795 2.64V7.238c0-.173.038-.303.115-.39a.391.391 0 0 1 .309-.129c.134 0 .24.043.318.129.078.087.116.217.116.39v3.524zm4.463.414c-.075.067-.185.1-.332.1h-2.537c-.203 0-.349-.044-.439-.132-.088-.087-.133-.229-.133-.425V7.352c0-.131.02-.237.06-.32a.365.365 0 0 1 .187-.18.796.796 0 0 1 .325-.057h2.465c.149 0 .259.032.332.096a.322.322 0 0 1 .108.252.327.327 0 0 1-.108.256c-.073.064-.183.096-.332.096h-2.104v1.1h1.937c.143 0 .249.031.319.093a.312.312 0 0 1 .106.246.324.324 0 0 1-.104.249c-.069.065-.176.097-.321.097h-1.937v1.274h2.176c.147 0 .258.033.332.1a.337.337 0 0 1 .112.264.33.33 0 0 1-.112.258z"/>
</svg>