<svg xmlns="http://www.w3.org/2000/svg" width="20" height="19">
    <path fill="#FFF" fill-rule="evenodd" d="M19.999 8.136C19.999 3.642 15.522 0 10 0 4.477 0 0 3.642 0 8.136c0 4.193 3.9 7.646 8.91 8.087.139.024.627.165.597.634-.055.863-.689 1.805-.466 2.024.205.202.697.328 3.014-1.278 1.239-.859 3.22-2.087 4.935-3.65 1.186-.945 2.086-2.127 2.579-3.452a5.772 5.772 0 0 0 .43-2.365zM6.115 11.173c-.08.068-.196.102-.348.102H3.512c-.203 0-.349-.043-.439-.131-.088-.087-.133-.229-.133-.425v-3.45c0-.183.042-.321.127-.412a.437.437 0 0 1 .336-.138c.14 0 .253.045.34.136.087.091.131.229.131.414v3.261h1.893a.51.51 0 0 1 .347.107c.08.071.121.161.121.269 0 .11-.04.199-.12.267zm1.704-.374c0 .185-.044.323-.131.416a.447.447 0 0 1-.34.137.433.433 0 0 1-.332-.139c-.087-.093-.13-.23-.13-.414v-3.53c0-.183.042-.321.129-.412a.434.434 0 0 1 .333-.138c.14 0 .254.045.34.136.087.091.131.229.131.414v3.53zm4.914-.037c0 .394-.168.589-.503.589a.583.583 0 0 1-.415-.146 1.178 1.178 0 0 1-.163-.179 9.462 9.462 0 0 1-.152-.209l-1.751-2.61v2.625c0 .172-.04.301-.122.389a.413.413 0 0 1-.314.13.404.404 0 0 1-.318-.132c-.08-.089-.119-.217-.119-.387V7.376c0-.146.016-.262.05-.345a.551.551 0 0 1 .497-.312.54.54 0 0 1 .215.04c.06.026.112.062.157.106.046.045.091.103.138.174l.147.224 1.795 2.64V7.238c0-.173.038-.303.115-.39a.391.391 0 0 1 .309-.129c.134 0 .24.043.318.129.078.087.116.217.116.39v3.524zm4.463.414c-.074.067-.185.099-.331.099h-2.538c-.203 0-.349-.043-.439-.131-.088-.087-.133-.229-.133-.425V7.351c0-.13.02-.236.06-.319a.365.365 0 0 1 .187-.18.798.798 0 0 1 .326-.057h2.464c.149 0 .259.032.332.096a.323.323 0 0 1 .108.253c0 .105-.036.19-.108.255-.073.064-.183.096-.332.096h-2.104v1.1h1.938c.142 0 .248.031.318.093a.31.31 0 0 1 .105.246.324.324 0 0 1-.103.249c-.069.065-.176.096-.32.096h-1.938v1.275h2.177c.146 0 .257.033.331.099a.338.338 0 0 1 .111.265.33.33 0 0 1-.111.258z"/>
</svg>
