<svg xmlns="http://www.w3.org/2000/svg" width="22" height="22">
    <path fill="#EA597A" fill-rule="evenodd" d="M10.997 22.01c-6.071 0-11.009-4.938-11.009-11.009 0-6.07 4.938-11.009 11.009-11.009 6.071 0 11.009 4.939 11.009 11.009 0 6.071-4.938 11.009-11.009 11.009zm4.437-2.348v-.971c0-1.167-.467-2.335-1.284-3.153-.818-.817-1.985-1.284-3.153-1.284s-2.336.467-3.153 1.284c-.818.818-1.285 1.986-1.285 3.153v.971a9.66 9.66 0 0 0 8.875 0zM14.266 8.415c0-.934-.35-1.751-.934-2.335-.584-.584-1.401-.934-2.335-.934a3.264 3.264 0 0 0-3.27 3.269 3.264 3.264 0 0 0 3.27 3.27 3.264 3.264 0 0 0 3.269-3.27zm-3.269-7.154c-5.371 0-9.741 4.369-9.741 9.74 0 3.18 1.538 6 3.902 7.779v-.089c0-1.518.701-3.036 1.752-4.087.946-.852 2.054-1.448 3.308-1.59a4.653 4.653 0 0 1-2.608-1.329c-.817-.817-1.284-1.985-1.284-3.27a4.685 4.685 0 0 1 4.671-4.671c1.284 0 2.452.467 3.269 1.402.818.934 1.402 2.101 1.285 3.269.107 2.463-1.657 4.316-3.929 4.611a6.006 6.006 0 0 1 3.579 1.695c1.021 1.134 1.59 2.493 1.622 4.068 2.372-1.778 3.916-4.602 3.916-7.788 0-5.371-4.371-9.74-9.742-9.74z"/>
</svg>
