
<svg xmlns="http://www.w3.org/2000/svg" width="22" height="22">
    <path fill="#FFF" fill-rule="evenodd" d="M11 22C4.925 22 0 17.075 0 11S4.925 0 11 0c6.076 0 11 4.925 11 11 0 6.076-4.924 11-11 11zm0-20.9c-5.459 0-9.9 4.441-9.9 9.9 0 5.459 4.441 9.9 9.9 9.9 5.459 0 9.9-4.441 9.9-9.9 0-5.459-4.441-9.9-9.9-9.9zm4.387 16.787c-1.453.161-2.923.163-4.388.161-1.464.002-2.935 0-4.389-.161a1.481 1.481 0 0 1-1.266-1.152c-.204-.888-.204-1.856-.204-2.771 0-.913.002-1.882.207-2.77a1.478 1.478 0 0 1 1.266-1.151c1.454-.163 2.924-.163 4.389-.163 1.464 0 2.934 0 4.388.163a1.482 1.482 0 0 1 1.267 1.151c.204.888.203 1.857.203 2.77 0 .915-.001 1.883-.205 2.771a1.481 1.481 0 0 1-1.268 1.152zm-6.903-6.633H6.014v.739h.833v4.506h.789v-4.506h.848v-.739zm2.139 1.337h-.709v2.988c-.157.222-.305.331-.447.331-.095 0-.149-.056-.166-.166-.007-.023-.007-.109-.007-.275v-2.877h-.708v3.09c0 .276.023.463.062.582.071.197.228.291.457.291.26 0 .527-.158.809-.481v.425h.709v-3.908zm2.69 1.179c0-.37-.024-.629-.071-.786-.094-.292-.284-.441-.566-.441-.26 0-.503.142-.732.424v-1.713h-.708v5.245h.708v-.379c.237.293.48.433.732.433.283 0 .472-.149.566-.439.047-.167.071-.426.071-.789V13.77zm2.674.095h-.001c0-.418-.071-.723-.219-.921-.198-.267-.48-.401-.836-.401-.361 0-.643.134-.848.401-.15.197-.219.503-.219.921v1.368c0 .416.079.724.228.92.205.266.487.401.858.401.37 0 .66-.141.856-.424.086-.125.142-.267.166-.424.007-.071.015-.228.015-.456v-.103h-.722c0 .284-.01.441-.016.48-.04.189-.142.283-.317.283-.242 0-.361-.179-.361-.542v-.692h1.416v-.811zm-1.417-.142c0-.361.119-.542.355-.542.235 0 .353.181.353.542v.362h-.708v-.362zm-2.273 2.186c-.117 0-.235-.055-.354-.173v-2.383c.119-.116.237-.172.354-.172.205 0 .308.181.308.534v1.667c0 .354-.103.527-.308.527zm1.698-6.656v-.431c-.285.327-.557.485-.817.485-.23 0-.389-.093-.461-.294-.04-.119-.064-.308-.064-.587V5.303h.714v2.909c0 .167 0 .255.01.278.015.111.071.168.167.168.143 0 .293-.112.452-.335v-3.02h.716v3.951h-.717v-.001zm-2.988.055c-.356 0-.635-.136-.833-.405-.152-.197-.224-.509-.224-.928V6.592c0-.423.072-.731.224-.931.197-.27.476-.405.833-.405.359 0 .638.135.835.405.15.2.222.508.222.931v1.383c.001.419-.072.73-.222.928-.197.269-.476.405-.835.405zm.342-2.861c0-.365-.11-.548-.342-.548-.23 0-.341.183-.341.548v1.662c0 .365.111.548.341.548.232 0 .342-.183.342-.548V6.447zm-2.36 2.806h-.794V7.106c-.073-.38-.232-.938-.486-1.676-.167-.493-.341-.986-.508-1.478h.835l.563 2.082.541-2.082h.802l-.953 3.154v2.147z"/>
</svg>
